<?xml version="1.0" standalone="no"?>
<!DOCTYPE svg PUBLIC "-//W3C//DTD SVG 20010904//EN"
 "http://www.w3.org/TR/2001/REC-SVG-20010904/DTD/svg10.dtd">
<svg version="1.0" xmlns="http://www.w3.org/2000/svg"
 width="512.000000pt" height="512.000000pt" viewBox="0 0 512.000000 512.000000"
 preserveAspectRatio="xMidYMid meet">
<metadata>
Created by potrace 1.11, written by Peter Selinger 2001-2013
</metadata>
<g transform="translate(0.000000,512.000000) scale(0.100000,-0.100000)"
fill="#000000" stroke="none">
<path d="M1487 4729 c-7 -4 -32 -10 -55 -12 -23 -3 -49 -12 -58 -21 -14 -15
-22 -18 -41 -15 -3 0 -10 -6 -15 -15 -5 -9 -16 -16 -23 -16 -8 0 -15 -4 -15
-10 0 -5 -7 -10 -16 -10 -8 0 -13 -4 -9 -9 3 -5 -8 -19 -25 -31 -17 -12 -28
-25 -25 -30 3 -5 -3 -13 -12 -19 -10 -6 -14 -11 -10 -11 4 0 -4 -17 -18 -37
-14 -21 -25 -45 -25 -55 0 -9 -7 -23 -15 -32 -9 -8 -14 -19 -13 -23 4 -15 -14
-93 -22 -98 -5 -3 -7 -12 -4 -20 3 -8 2 -20 -3 -27 -10 -16 -11 -32 -16 -263
-3 -104 -2 -194 2 -200 3 -5 7 -26 8 -45 1 -19 5 -53 8 -75 3 -22 8 -52 9 -67
2 -16 5 -30 6 -33 1 -3 3 -13 4 -22 1 -10 7 -35 14 -56 6 -21 9 -44 6 -52 -3
-7 -1 -16 5 -20 17 -10 13 -38 -3 -32 -8 3 -16 2 -18 -3 -2 -5 -12 -11 -23
-13 -11 -1 -26 -6 -32 -10 -7 -5 -18 -5 -23 -2 -5 3 -10 1 -10 -5 0 -7 -7 -10
-15 -7 -8 4 -17 2 -20 -4 -4 -5 -11 -7 -16 -4 -5 4 -9 2 -9 -4 0 -5 -26 -18
-57 -28 -32 -10 -59 -21 -61 -25 -2 -5 -11 -8 -21 -8 -9 0 -22 -5 -29 -12 -7
-7 -12 -9 -12 -4 0 4 -7 0 -16 -9 -9 -9 -23 -14 -30 -11 -8 3 -14 1 -14 -4 0
-9 -37 -25 -71 -29 -5 0 -8 -5 -5 -10 5 -8 -47 -36 -67 -36 -4 0 -11 -5 -15
-10 -9 -12 -122 -87 -122 -81 0 3 -11 -5 -24 -17 -53 -49 -74 -67 -80 -67 -4
0 -23 -18 -44 -41 -20 -23 -48 -53 -62 -67 -14 -15 -25 -29 -25 -32 0 -3 -12
-26 -28 -52 -15 -26 -27 -49 -27 -53 0 -4 -6 -13 -14 -21 -8 -7 -12 -23 -9
-34 3 -11 1 -20 -3 -20 -5 0 -10 -12 -11 -27 -1 -16 -3 -44 -5 -63 -3 -19 0
-41 5 -47 5 -7 7 -19 4 -28 -4 -8 -2 -17 4 -21 6 -3 8 -12 5 -20 -3 -8 -1 -14
5 -14 6 0 9 -7 5 -15 -3 -8 -1 -15 4 -15 9 0 26 -39 22 -52 -1 -5 3 -8 9 -8 5
0 8 -4 5 -9 -3 -5 1 -12 10 -15 8 -3 13 -10 10 -15 -3 -5 1 -11 9 -15 8 -3 15
-10 15 -16 0 -6 16 -24 35 -41 19 -17 32 -35 29 -40 -3 -5 6 -13 19 -18 13 -5
36 -23 50 -40 14 -18 28 -31 29 -29 4 3 46 -32 67 -54 8 -10 23 -18 33 -18 9
0 22 -8 27 -17 6 -10 11 -14 11 -10 0 4 10 -1 22 -12 11 -11 25 -18 30 -15 4
3 8 0 8 -6 0 -6 4 -9 9 -5 6 3 13 -1 18 -8 10 -17 53 -41 53 -30 0 4 4 3 8 -3
9 -14 100 -56 126 -59 11 -1 22 -7 24 -14 2 -6 8 -9 13 -5 5 3 9 0 9 -6 0 -7
7 -10 15 -7 8 4 17 2 20 -3 4 -6 15 -10 25 -10 10 0 20 -4 22 -10 2 -5 14 -11
28 -14 14 -2 25 -5 25 -6 0 -1 11 -4 25 -6 14 -3 26 -9 28 -14 2 -5 10 -6 18
-3 8 3 14 0 14 -6 0 -6 7 -8 15 -5 8 4 15 1 15 -6 0 -6 4 -9 9 -6 27 17 53
-32 32 -59 -5 -5 -7 -18 -6 -27 2 -10 -1 -21 -6 -24 -6 -3 -7 -14 -4 -25 4
-10 2 -19 -3 -19 -5 0 -10 -12 -10 -27 0 -16 -3 -46 -6 -68 -3 -22 -6 -51 -6
-64 0 -12 -3 -28 -7 -34 -20 -33 -19 -377 3 -517 2 -14 5 -36 6 -50 2 -14 6
-27 10 -30 4 -3 8 -17 10 -32 2 -15 7 -30 11 -34 4 -4 7 -18 7 -31 0 -13 5
-23 11 -23 5 0 7 -5 4 -10 -3 -6 1 -17 9 -26 9 -8 16 -22 16 -30 0 -8 5 -14
10 -14 6 0 10 -7 10 -15 0 -8 5 -15 10 -15 6 0 10 -7 10 -15 0 -8 5 -15 10
-15 6 0 14 -8 17 -18 9 -22 29 -42 42 -42 5 0 16 -9 24 -20 8 -11 16 -18 18
-15 3 2 17 -7 33 -20 15 -13 34 -21 42 -18 8 3 14 0 14 -7 0 -6 5 -8 10 -5 6
3 16 3 23 -2 18 -11 35 -13 117 -13 90 0 132 4 148 14 7 4 16 5 21 1 5 -3 13
0 16 6 4 5 13 8 20 5 7 -2 16 -2 20 2 4 4 11 8 16 8 5 1 11 3 14 4 3 1 8 3 13
4 4 1 16 7 28 13 11 7 34 14 50 17 16 3 30 10 32 16 2 5 8 8 13 4 5 -3 9 -1 9
5 0 10 38 27 53 23 4 -1 7 2 7 7 0 10 39 27 53 23 4 -1 7 2 7 7 0 10 80 60 93
57 5 0 13 7 18 17 6 9 14 15 19 12 4 -3 11 2 14 11 3 8 10 12 16 9 5 -3 10 -1
10 4 0 6 6 11 14 11 7 0 21 11 30 25 9 14 21 23 26 20 5 -3 15 3 22 13 7 11
17 20 21 20 4 1 32 25 61 53 30 28 57 52 62 53 4 0 22 16 39 34 18 17 37 32
42 32 6 0 24 -16 40 -35 17 -19 34 -35 38 -35 8 0 44 -31 87 -75 15 -16 32
-30 36 -30 13 0 52 -32 46 -37 -3 -4 5 -9 18 -13 24 -8 121 -74 126 -87 2 -5
10 -8 18 -8 8 0 14 -5 14 -11 0 -5 4 -8 8 -5 5 3 19 -4 30 -15 12 -11 22 -17
22 -14 0 7 114 -57 118 -67 2 -4 10 -4 18 -1 8 3 14 0 14 -7 0 -6 5 -8 10 -5
5 3 10 1 10 -5 0 -6 3 -9 8 -6 4 2 23 -3 42 -12 19 -8 38 -16 43 -17 4 -2 8
-4 10 -5 1 -1 11 -4 22 -5 11 -2 40 -8 65 -14 92 -24 245 -29 265 -9 4 4 13 4
21 1 8 -3 14 0 14 7 0 6 4 9 9 5 5 -3 12 -1 16 5 4 6 11 8 16 5 5 -4 9 -1 9 6
0 7 3 9 6 6 6 -6 28 9 84 56 8 6 18 11 22 10 5 -2 8 3 8 11 0 8 9 21 20 29 11
8 18 16 15 19 -3 3 6 17 19 31 13 14 21 28 18 31 -3 3 0 6 7 6 7 0 9 5 6 10
-3 6 -1 10 4 10 6 0 10 3 9 8 -1 4 4 23 11 42 8 19 15 44 18 55 2 10 8 22 14
25 5 4 7 14 3 23 -3 9 -2 17 3 17 5 0 9 10 8 23 -1 12 0 27 4 32 3 6 7 21 8
35 1 14 6 59 10 100 10 103 5 267 -13 395 -13 95 -16 121 -16 145 0 14 -4 31
-10 37 -6 7 -8 19 -5 28 4 8 2 17 -3 20 -5 3 -7 12 -3 20 3 9 0 22 -7 30 -7 8
-10 21 -7 29 3 7 0 19 -6 25 -8 8 -7 11 6 12 18 2 34 5 42 9 3 1 10 4 15 5 6
1 13 4 18 5 4 1 12 3 17 4 33 6 65 19 65 27 0 5 7 6 15 3 8 -4 15 -1 15 5 0 6
6 8 14 5 7 -3 20 2 29 10 9 9 25 16 36 16 11 0 27 7 35 16 9 8 25 16 36 17 11
1 20 5 20 10 0 4 5 5 10 2 6 -3 10 -1 10 5 0 6 4 9 9 6 5 -4 11 -2 13 3 1 5
10 11 18 13 8 2 17 6 20 10 3 3 12 8 20 10 8 2 21 9 28 16 8 7 18 10 23 7 5
-4 9 -1 9 4 0 6 6 11 14 11 8 0 16 4 18 9 2 5 9 11 17 13 7 2 25 13 39 26 14
12 36 25 48 28 12 3 25 12 28 21 3 8 10 12 15 8 6 -3 15 4 21 16 7 11 14 18
17 15 3 -3 16 8 30 25 14 16 28 27 32 24 7 -4 75 63 76 75 0 8 67 93 80 102 5
4 6 8 1 8 -6 0 0 9 12 20 12 11 19 27 16 35 -4 8 -1 15 6 15 6 0 8 4 5 10 -3
6 -1 10 5 10 6 0 8 4 5 10 -3 5 1 36 9 68 9 32 13 69 10 83 -4 13 -7 33 -9 44
-1 11 -7 31 -12 45 -6 14 -8 31 -6 38 3 6 1 12 -4 12 -5 0 -15 16 -23 35 -8
19 -18 35 -22 35 -5 0 -7 4 -4 9 3 5 -1 12 -10 15 -9 4 -14 9 -11 12 3 4 -4
15 -16 25 -12 10 -19 18 -16 19 9 0 -104 114 -114 114 -5 1 -14 9 -21 19 -7 9
-18 17 -24 17 -6 0 -16 9 -22 20 -6 11 -14 19 -18 17 -11 -3 -82 43 -82 54 0
6 -4 8 -8 5 -5 -3 -19 4 -31 15 -12 12 -28 22 -35 23 -6 1 -30 12 -51 26 -22
13 -43 23 -47 22 -5 -1 -8 3 -8 9 0 5 -4 8 -9 4 -5 -3 -16 2 -25 11 -9 8 -20
13 -25 10 -5 -4 -16 1 -24 9 -9 8 -23 15 -31 15 -9 0 -16 5 -16 11 0 6 -7 9
-15 5 -8 -3 -15 -1 -15 4 0 6 -11 10 -24 10 -13 0 -26 5 -28 10 -2 6 -18 13
-37 15 -18 2 -39 9 -45 15 -7 5 -16 7 -19 3 -4 -3 -7 -1 -7 5 0 6 -7 9 -15 6
-8 -4 -15 -1 -15 5 0 6 -7 8 -15 5 -8 -4 -15 -2 -15 4 0 5 -6 10 -12 9 -44 -1
-55 14 -41 53 3 8 7 22 9 30 12 60 15 79 18 107 3 18 8 47 12 65 25 105 35
401 19 543 -4 33 -8 70 -8 83 -1 12 -4 22 -7 22 -3 0 -12 28 -20 62 -7 34 -19
73 -26 87 -7 14 -11 28 -8 33 3 4 0 8 -6 8 -6 0 -8 5 -5 10 3 6 1 10 -5 10 -6
0 -8 5 -5 10 3 6 1 10 -5 10 -6 0 -9 4 -6 9 3 5 -1 11 -9 15 -8 3 -15 15 -15
26 0 12 -4 18 -10 15 -5 -3 -10 -2 -10 3 0 14 -100 113 -109 107 -4 -2 -17 4
-27 14 -11 9 -25 16 -32 13 -6 -2 -12 0 -12 5 0 4 -14 9 -31 10 -17 1 -36 6
-43 10 -12 9 -175 8 -216 -1 -79 -17 -156 -41 -162 -50 -4 -6 -8 -7 -8 -2 0 4
-11 1 -25 -8 -14 -9 -25 -13 -25 -9 0 5 -4 2 -9 -5 -4 -7 -18 -14 -29 -15 -12
-1 -22 -5 -22 -8 0 -4 -16 -13 -35 -20 -19 -7 -35 -16 -35 -20 0 -8 -40 -24
-53 -21 -4 1 -10 -5 -13 -13 -3 -8 -10 -12 -15 -9 -5 3 -9 0 -9 -5 0 -6 -5
-11 -11 -11 -7 0 -32 -16 -55 -36 -24 -19 -44 -33 -44 -30 0 3 -9 -3 -20 -14
-11 -11 -27 -20 -37 -20 -9 0 -13 -3 -10 -7 7 -7 -33 -39 -45 -36 -4 2 -17
-10 -28 -25 -12 -15 -24 -26 -26 -24 -3 1 -18 -12 -34 -30 -17 -18 -30 -29
-30 -25 0 4 -14 -8 -31 -28 -17 -19 -38 -35 -46 -35 -8 0 -11 -4 -8 -10 15
-24 -15 -7 -39 23 -15 17 -30 32 -34 32 -4 0 -6 3 -5 7 2 5 -3 8 -11 8 -8 0
-21 9 -29 20 -8 11 -16 18 -18 15 -3 -2 -26 16 -52 39 -26 24 -47 41 -47 38 0
-3 -16 11 -36 31 -20 20 -40 34 -44 32 -4 -3 -15 4 -25 15 -10 11 -24 20 -32
20 -7 0 -13 5 -13 10 0 6 -7 10 -16 10 -8 0 -12 5 -9 10 5 9 1 11 -20 10 -3
-1 -13 6 -21 15 -9 8 -21 15 -28 15 -7 0 -26 11 -41 24 -16 14 -32 23 -36 21
-4 -3 -18 5 -33 16 -14 11 -26 18 -26 15 0 -3 -13 0 -30 5 -16 6 -30 15 -30
21 0 5 -4 6 -10 3 -5 -3 -10 -2 -10 4 0 6 -7 8 -15 5 -8 -4 -15 -1 -15 5 0 6
-7 8 -15 5 -8 -4 -15 -2 -15 4 0 5 -6 9 -12 9 -25 -1 -98 16 -104 24 -2 4 -11
6 -19 3 -8 -3 -20 -2 -27 3 -16 10 -143 11 -161 2z m161 -219 c12 0 22 -5 22
-11 0 -6 7 -8 16 -5 8 3 25 1 37 -6 12 -7 27 -13 32 -14 6 0 13 -2 18 -4 4 -1
10 -3 15 -4 28 -7 52 -19 52 -26 0 -5 6 -7 14 -4 7 3 20 -2 29 -10 8 -8 17
-12 21 -9 3 3 8 -2 12 -11 3 -9 10 -13 15 -10 5 3 9 0 9 -5 0 -6 3 -10 8 -10
17 3 30 -2 50 -21 12 -12 22 -18 22 -15 0 8 62 -35 72 -50 4 -5 11 -10 15 -10
17 0 163 -113 163 -126 0 -6 4 -8 9 -5 4 3 19 -8 31 -24 13 -17 28 -30 35 -30
15 0 48 -36 51 -55 1 -8 -23 -38 -54 -66 -32 -29 -57 -56 -57 -60 0 -5 -14
-22 -32 -38 -17 -16 -30 -31 -27 -34 3 -2 -6 -14 -20 -25 -15 -11 -26 -25 -26
-30 0 -6 -11 -19 -25 -30 -13 -11 -22 -22 -19 -25 3 -2 -7 -14 -22 -26 -15
-11 -23 -21 -18 -21 5 -1 -2 -10 -15 -20 -13 -11 -19 -20 -15 -20 5 -1 -2 -10
-15 -20 -13 -11 -20 -20 -16 -20 5 0 -2 -9 -15 -20 -13 -11 -19 -20 -15 -20 5
0 3 -6 -3 -12 -7 -7 -36 -14 -65 -16 -55 -3 -102 -8 -102 -12 0 -1 -13 -3 -30
-5 -16 -1 -50 -7 -75 -13 -47 -10 -67 -12 -112 -12 -16 0 -28 -4 -28 -10 0 -5
-10 -10 -22 -10 -25 1 -71 -6 -75 -10 -2 -1 -11 -3 -20 -4 -10 -1 -23 -5 -30
-9 -6 -4 -18 -4 -27 -1 -9 3 -16 1 -16 -4 0 -6 -14 -10 -30 -10 -22 1 -30 5
-28 17 1 9 0 21 -4 26 -4 6 -10 31 -13 55 -6 44 -9 63 -20 133 -3 17 -7 52
-10 77 -8 66 -13 373 -7 384 3 5 7 32 9 60 2 27 8 56 14 62 6 7 8 17 5 22 -3
5 1 20 9 35 8 15 12 27 9 27 -7 0 28 63 39 71 5 3 7 8 6 10 -7 8 54 68 62 63
5 -3 9 0 9 6 0 6 5 8 10 5 6 -3 10 -1 10 5 0 7 6 10 13 7 8 -3 19 -2 25 2 7 4
36 6 64 4 29 -1 63 -3 76 -3z m1990 -3 c17 -6 32 -15 32 -19 0 -4 4 -7 10 -5
13 3 81 -74 74 -84 -3 -5 0 -9 6 -9 6 0 8 -4 5 -10 -3 -5 -1 -10 5 -10 6 0 9
-4 5 -9 -3 -5 -1 -12 5 -16 6 -4 8 -11 5 -16 -4 -5 -2 -9 4 -9 5 0 10 -8 9
-17 0 -10 3 -29 7 -43 4 -14 8 -35 9 -47 0 -13 3 -23 6 -23 8 0 11 -66 11
-220 0 -74 0 -154 0 -178 0 -23 -3 -48 -8 -55 -6 -10 -9 -36 -13 -112 -1 -10
-5 -24 -10 -30 -5 -6 -9 -20 -9 -30 -1 -51 -4 -76 -12 -81 -5 -3 -6 -10 -3
-16 16 -25 -72 -32 -101 -8 -7 6 -15 7 -18 4 -3 -3 -12 -2 -19 2 -13 9 -41 14
-85 15 -13 1 -23 5 -23 10 0 5 -12 9 -27 9 -46 0 -66 2 -113 12 -45 10 -87 16
-145 21 -16 1 -34 5 -40 9 -5 3 -23 4 -39 3 -28 -3 -56 13 -56 34 0 5 -8 15
-17 20 -10 6 -14 11 -9 11 4 0 -2 9 -15 20 -13 10 -21 19 -18 20 4 0 -11 19
-32 42 -22 24 -39 48 -39 53 0 6 -9 16 -20 23 -12 7 -19 16 -16 21 3 4 -10 20
-29 36 -19 15 -35 32 -35 37 0 5 -13 21 -30 35 -16 13 -30 30 -30 37 0 6 -18
27 -40 45 -22 18 -40 39 -40 47 0 8 -3 13 -7 13 -5 -1 -11 -1 -16 0 -11 2 113
121 127 121 7 0 22 14 35 31 13 17 25 29 27 26 2 -2 20 11 40 30 20 18 39 31
43 29 4 -3 20 8 35 25 15 16 32 27 37 23 5 -3 9 0 9 5 0 6 7 11 15 11 8 0 23
9 32 19 9 11 20 18 24 16 4 -3 12 2 19 10 7 8 20 15 30 15 10 0 21 7 24 16 3
8 10 12 16 9 5 -3 10 -1 10 4 0 6 6 11 13 11 6 1 30 9 52 20 22 10 43 16 47
14 5 -3 8 0 8 6 0 6 4 9 9 5 5 -3 13 -1 16 5 4 6 15 8 26 5 11 -4 19 -2 19 5
0 7 6 10 13 7 8 -3 20 -1 28 3 19 12 127 10 167 -3z m-1032 -661 c24 -22 41
-42 39 -46 -2 -4 14 -22 35 -40 22 -19 40 -39 40 -47 0 -7 11 -20 25 -29 14
-9 23 -19 20 -24 -2 -4 8 -16 23 -27 15 -11 28 -29 29 -39 1 -18 -10 -19 -258
-19 -274 -1 -295 3 -244 43 13 11 22 22 19 25 -3 2 8 15 23 27 15 12 26 23 23
25 -3 2 11 18 30 37 19 18 34 36 33 39 -1 4 20 27 47 52 28 26 50 51 50 57 0
17 21 7 66 -34z m274 -501 c127 -7 140 -8 135 -13 -4 -5 11 -25 38 -50 9 -9
17 -25 17 -35 0 -10 4 -16 9 -13 5 3 13 -6 19 -22 5 -15 21 -40 35 -57 15 -16
24 -31 22 -33 -2 -2 4 -13 14 -23 10 -11 24 -32 31 -47 8 -15 20 -34 28 -44 7
-9 14 -23 16 -30 1 -8 12 -27 24 -42 12 -16 19 -32 16 -37 -3 -5 0 -9 5 -9 6
0 11 -7 11 -15 0 -8 4 -15 9 -15 8 0 34 -52 38 -78 1 -8 8 -21 16 -30 22 -26
47 -79 40 -86 -4 -3 -2 -6 4 -6 11 0 40 -59 35 -72 -1 -5 3 -8 8 -8 6 0 10 -9
10 -20 0 -24 -21 -70 -32 -70 -4 0 -7 -3 -6 -7 4 -15 -13 -53 -23 -53 -6 0 -7
-4 -4 -10 3 -5 1 -10 -5 -10 -6 0 -8 -4 -5 -10 3 -5 1 -10 -5 -10 -6 0 -8 -4
-5 -10 3 -5 1 -10 -6 -10 -7 0 -10 -3 -6 -6 8 -9 -21 -64 -34 -64 -6 0 -8 -4
-5 -9 3 -5 -1 -14 -9 -21 -8 -7 -13 -16 -10 -20 3 -4 -6 -24 -20 -44 -14 -20
-25 -41 -25 -46 0 -6 -5 -10 -11 -10 -5 0 -7 -4 -4 -10 3 -5 2 -10 -4 -10 -5
0 -13 -10 -17 -22 -4 -13 -9 -25 -13 -28 -3 -3 -17 -27 -31 -54 -14 -26 -31
-50 -37 -53 -7 -3 -11 -9 -8 -13 3 -5 -1 -12 -9 -17 -7 -4 -21 -25 -29 -45 -9
-21 -21 -38 -27 -38 -6 0 -8 -4 -5 -10 3 -5 1 -10 -4 -10 -6 0 -11 -6 -11 -14
0 -8 -7 -16 -15 -20 -8 -3 -15 -12 -15 -19 0 -9 -13 -14 -37 -15 -21 0 -87 -3
-148 -7 -130 -7 -397 -7 -545 0 -58 3 -124 6 -147 6 -24 1 -40 6 -37 10 3 5
-2 12 -10 15 -9 3 -14 10 -11 14 3 4 -2 11 -11 14 -8 3 -13 10 -10 15 3 5 -1
12 -10 15 -8 3 -13 10 -10 15 3 5 -1 12 -10 15 -8 3 -13 10 -10 15 3 5 -1 11
-9 15 -8 3 -15 15 -15 26 0 11 -7 23 -15 26 -8 4 -15 12 -15 20 0 8 -5 14 -12
14 -6 0 -9 3 -6 6 4 3 -2 14 -13 25 -11 11 -17 24 -14 28 2 5 -2 12 -11 15 -8
3 -12 10 -9 16 3 5 2 10 -3 10 -5 0 -15 12 -22 28 -8 15 -23 40 -33 55 -10 15
-20 33 -21 40 -1 7 -17 34 -34 61 -18 28 -32 58 -32 68 0 10 -5 18 -11 18 -5
0 -7 5 -4 10 3 6 1 10 -5 10 -6 0 -8 5 -5 10 3 6 2 10 -2 10 -8 0 -32 49 -39
80 -1 8 -8 16 -14 18 -5 2 -8 8 -4 13 3 5 1 9 -4 9 -5 0 -8 10 -7 23 2 33 15
67 26 67 5 0 8 3 8 8 -3 14 23 72 33 72 5 0 6 5 3 10 -3 6 -1 10 5 10 6 0 8 5
5 10 -3 6 -1 10 6 10 7 0 9 3 6 7 -7 6 51 116 65 121 4 2 6 8 2 13 -3 5 0 9 6
9 6 0 9 4 6 8 -3 5 2 18 12 28 9 11 18 26 20 34 2 8 10 20 17 26 8 6 12 14 8
17 -3 4 -1 7 6 7 7 0 10 4 7 9 -3 4 3 16 14 26 11 10 17 21 15 25 -3 4 2 10
10 14 8 3 15 15 15 26 0 12 5 18 10 15 6 -3 11 -1 11 4 1 6 2 16 3 21 0 6 6
14 11 18 6 4 18 24 27 45 10 20 23 37 28 37 6 0 9 4 6 8 -3 5 8 23 23 40 16
17 27 33 25 35 -4 4 21 6 163 10 51 2 95 6 99 9 6 7 354 2 514 -7z m-1060 -45
c0 -5 -5 -10 -11 -10 -5 0 -7 -4 -4 -10 3 -5 1 -10 -4 -10 -6 0 -11 -7 -11
-15 0 -8 -5 -15 -11 -15 -5 0 -7 -5 -4 -10 3 -6 -1 -13 -9 -16 -9 -3 -13 -10
-10 -15 3 -5 0 -9 -5 -9 -6 0 -11 -7 -11 -15 0 -8 -5 -15 -10 -15 -5 0 -9 -4
-7 -9 3 -12 -55 -111 -66 -111 -4 0 -5 -4 -2 -10 3 -5 1 -10 -5 -10 -6 0 -9
-4 -6 -9 3 -5 -1 -12 -10 -15 -8 -3 -12 -10 -9 -16 3 -5 1 -10 -5 -10 -6 0 -8
-4 -5 -10 3 -5 1 -10 -5 -10 -6 0 -8 -4 -5 -10 3 -5 1 -10 -5 -10 -6 0 -9 -4
-5 -9 3 -5 -2 -17 -11 -25 -8 -9 -12 -16 -7 -16 4 0 0 -5 -9 -11 -10 -5 -18
-20 -18 -31 0 -26 -13 -15 -17 15 -2 12 -8 24 -13 25 -6 2 -8 7 -5 12 3 5 -4
23 -14 42 -11 18 -22 46 -25 61 -7 38 -24 93 -46 142 -10 22 -20 52 -24 68 -7
28 4 33 57 29 9 -1 17 2 17 7 0 6 8 10 18 10 24 0 60 6 110 20 23 7 47 9 52 6
5 -3 11 -1 15 5 3 6 17 8 30 6 14 -3 27 -1 30 4 3 4 16 7 30 5 14 -1 28 2 31
6 7 12 24 11 24 -1z m1529 -5 c12 3 26 3 33 -2 7 -4 27 -8 43 -9 17 -1 41 -5
55 -9 14 -3 34 -8 45 -10 11 -2 31 -6 45 -10 14 -4 36 -8 50 -10 14 -1 25 -3
25 -4 0 -3 34 -11 56 -13 15 -2 15 -6 2 -53 -8 -27 -20 -53 -27 -57 -6 -4 -7
-8 -2 -8 5 0 3 -6 -3 -14 -6 -8 -11 -18 -10 -22 1 -5 1 -11 -1 -14 -1 -3 -3
-16 -6 -29 -2 -14 -9 -30 -14 -36 -5 -7 -7 -15 -3 -18 3 -4 2 -7 -3 -7 -5 0
-10 -12 -11 -26 0 -15 -5 -29 -10 -33 -4 -3 -10 -15 -11 -26 -2 -11 -8 -23
-14 -26 -5 -3 -9 -9 -9 -13 1 -3 -2 -6 -6 -6 -5 0 -8 3 -8 8 0 4 -10 21 -21
37 -32 45 -54 92 -47 99 4 3 1 6 -6 6 -7 0 -10 4 -7 9 3 5 -1 12 -10 15 -9 4
-14 9 -10 13 3 3 -6 21 -20 40 -14 18 -22 33 -19 33 3 0 -3 10 -14 22 -11 11
-18 25 -15 30 3 4 1 8 -3 8 -10 0 -49 63 -43 68 3 2 -3 8 -12 13 -10 6 -18 19
-18 29 0 11 -4 20 -10 20 -5 0 -10 5 -10 11 0 8 4 8 15 -1 8 -6 23 -9 34 -5z
m-2146 -169 c1 -14 6 -26 10 -26 5 0 5 -5 1 -11 -3 -6 -2 -14 4 -18 6 -3 13
-20 16 -36 2 -17 5 -31 6 -32 2 -2 4 -7 5 -13 1 -5 3 -12 4 -15 0 -3 1 -8 0
-11 0 -4 4 -10 10 -13 6 -4 12 -18 13 -31 2 -14 7 -28 11 -31 4 -3 9 -16 10
-27 1 -12 5 -22 10 -22 5 0 7 -6 4 -14 -3 -8 -1 -16 4 -18 5 -2 11 -13 12 -26
0 -12 4 -22 8 -22 7 0 22 -44 23 -65 1 -5 7 -16 14 -23 7 -8 10 -18 7 -23 -4
-5 -1 -9 5 -9 7 0 10 -7 6 -15 -3 -8 -1 -15 4 -15 6 0 10 -9 10 -20 0 -11 5
-20 10 -20 14 0 12 -26 -2 -42 -7 -7 -15 -22 -16 -33 -2 -11 -9 -23 -15 -27
-7 -4 -8 -8 -4 -8 5 0 5 -6 0 -12 -4 -7 -8 -15 -8 -18 -3 -24 -50 -130 -57
-130 -5 0 -6 -4 -3 -10 3 -5 0 -20 -7 -32 -7 -13 -13 -25 -13 -28 -4 -30 -41
-130 -48 -130 -5 0 -7 -6 -4 -14 3 -7 -1 -26 -9 -41 -8 -15 -11 -31 -8 -36 3
-5 1 -9 -5 -9 -6 0 -8 -7 -5 -15 4 -8 1 -15 -6 -15 -7 0 -10 -7 -6 -16 5 -14
4 -15 -9 -4 -8 7 -15 9 -15 4 0 -4 -5 -3 -12 4 -7 7 -21 12 -32 12 -12 0 -30
7 -40 15 -10 8 -22 12 -27 10 -4 -3 -10 -1 -14 4 -3 6 -12 8 -19 5 -7 -3 -19
2 -26 10 -7 9 -17 13 -22 10 -6 -4 -14 -1 -18 6 -4 7 -16 13 -26 14 -30 2
-114 38 -114 48 0 5 -4 7 -9 3 -5 -3 -15 0 -23 7 -7 7 -20 14 -28 16 -8 2 -20
10 -26 17 -6 8 -14 12 -17 8 -4 -3 -7 -1 -7 6 0 7 -4 10 -9 7 -5 -4 -23 6 -40
20 -17 14 -31 23 -31 19 0 -3 -20 8 -45 25 -25 17 -45 36 -45 42 0 6 -3 9 -6
5 -3 -3 -17 6 -31 21 -14 15 -29 26 -33 25 -11 -3 -90 91 -90 106 0 6 -5 11
-11 11 -5 0 -8 4 -4 9 3 5 -1 16 -9 24 -8 8 -12 17 -9 21 4 3 2 6 -3 6 -5 0
-11 11 -12 25 -1 13 -2 28 -3 32 -6 33 5 76 26 107 13 20 22 36 19 36 -8 0 16
27 77 89 65 64 89 85 89 75 0 -4 9 3 20 16 11 13 20 19 20 14 0 -5 5 -1 11 9
6 9 14 15 19 12 4 -3 11 2 14 11 3 8 10 12 16 9 5 -3 10 -2 10 2 0 11 60 47
60 36 0 -4 4 -3 8 2 7 10 157 89 174 91 4 1 11 3 16 4 4 1 10 2 15 1 4 0 7 4
7 10 0 5 5 7 10 4 6 -3 10 -2 10 4 0 6 17 13 38 17 20 4 39 10 42 14 9 13 155
57 163 49 5 -4 10 -19 10 -33z m2737 36 c0 -5 6 -9 13 -10 12 -1 47 -9 57 -12
3 -1 8 -2 13 -1 4 0 7 -2 7 -6 0 -5 12 -9 26 -10 15 0 29 -5 33 -10 3 -4 11
-8 16 -9 25 -1 65 -17 65 -26 0 -5 4 -7 9 -3 5 3 12 1 16 -5 4 -6 10 -8 15 -5
5 3 15 -1 23 -9 8 -8 17 -12 21 -9 3 4 6 1 6 -5 0 -7 9 -12 19 -12 11 0 26 -7
34 -15 8 -8 17 -11 21 -8 3 4 6 1 6 -5 0 -7 3 -11 8 -10 14 4 52 -13 52 -23 0
-6 4 -8 9 -5 5 4 23 -5 39 -19 16 -13 32 -22 36 -18 3 3 6 1 6 -5 0 -7 6 -12
14 -12 8 0 17 -7 20 -16 4 -9 9 -14 12 -11 6 6 19 -2 60 -40 13 -12 24 -20 24
-17 0 2 29 -25 65 -61 36 -36 63 -70 60 -74 -2 -5 2 -12 11 -15 8 -3 13 -10
10 -15 -4 -5 -2 -11 4 -13 6 -2 13 -19 16 -38 5 -32 6 -46 3 -102 0 -10 -4
-18 -10 -18 -5 0 -9 -8 -9 -19 0 -10 -7 -24 -15 -31 -8 -7 -15 -18 -15 -26 0
-7 -9 -18 -21 -24 -11 -7 -18 -14 -15 -18 7 -7 -43 -62 -57 -62 -5 0 -18 -11
-28 -24 -11 -14 -29 -28 -41 -32 -12 -4 -35 -20 -51 -35 -16 -16 -32 -27 -37
-24 -4 3 -11 -2 -14 -11 -3 -8 -10 -12 -16 -9 -5 3 -10 1 -10 -6 0 -7 -3 -10
-6 -6 -3 3 -14 -2 -25 -11 -11 -9 -21 -15 -23 -12 -1 3 -10 -3 -20 -13 -10 -9
-22 -15 -27 -12 -5 4 -9 2 -9 -3 0 -12 -140 -73 -151 -66 -5 3 -9 0 -9 -6 0
-6 -4 -8 -10 -5 -5 3 -10 1 -10 -5 0 -7 -7 -10 -15 -6 -8 3 -20 0 -27 -7 -17
-16 -79 -38 -89 -31 -5 3 -9 0 -9 -5 0 -6 -3 -10 -7 -10 -5 1 -11 0 -15 -1 -5
-1 -12 -4 -18 -5 -5 -1 -11 -3 -12 -5 -10 -8 -48 -5 -49 4 -1 6 -3 20 -4 32
-1 11 -12 47 -25 80 -12 32 -24 66 -25 74 -2 8 -4 16 -4 18 -1 1 -1 5 -2 10 0
4 -5 13 -11 20 -6 6 -7 12 -2 12 5 0 4 4 -1 8 -15 9 -55 118 -48 126 4 3 1 6
-5 6 -9 0 -19 30 -25 67 0 5 -7 14 -14 22 -8 7 -12 20 -9 27 3 8 1 14 -5 14
-6 0 -7 5 -4 10 3 6 1 10 -5 10 -6 0 -8 5 -5 10 3 6 1 10 -5 10 -7 0 -10 6 -7
14 3 8 1 17 -6 20 -9 5 -9 7 1 12 6 3 10 10 6 15 -3 5 0 9 6 9 7 0 10 7 6 15
-3 8 -1 15 4 15 6 0 9 3 8 8 -2 12 14 62 21 62 4 0 8 10 8 22 1 13 7 24 13 26
5 2 10 15 10 28 0 13 4 24 10 24 5 0 7 7 4 15 -4 8 -1 15 5 15 6 0 10 3 10 8
-1 4 -1 9 1 12 1 3 4 16 6 30 3 14 9 27 14 28 6 2 8 8 5 13 -3 5 0 19 7 31 7
13 11 26 10 31 -1 4 3 7 9 7 5 0 7 4 4 10 -3 5 0 22 8 37 8 15 12 34 10 41 -3
6 1 12 7 12 7 0 10 7 6 15 -3 8 -1 15 4 15 6 0 9 3 9 8 -4 23 2 52 11 52 6 0
10 -4 10 -8z m-2356 -954 c-3 -4 0 -8 6 -8 6 0 9 -4 6 -9 -3 -4 5 -21 19 -37
13 -15 22 -30 20 -32 -2 -3 3 -11 11 -19 8 -8 12 -19 9 -24 -4 -5 -1 -9 5 -9
6 0 9 -4 6 -9 -3 -5 1 -12 10 -15 9 -4 14 -9 11 -12 -3 -3 1 -13 9 -22 8 -10
13 -19 12 -22 -2 -3 7 -16 19 -29 12 -13 20 -27 18 -31 -3 -5 2 -11 11 -14 8
-3 13 -10 10 -15 -4 -5 -3 -11 2 -13 8 -3 52 -63 52 -71 0 -7 -54 -6 -65 2 -5
3 -21 7 -35 7 -14 1 -38 5 -55 9 -16 4 -39 8 -50 9 -11 0 -26 5 -33 9 -7 5
-19 6 -27 3 -8 -3 -15 -1 -15 5 0 5 -11 7 -25 3 -16 -4 -25 -2 -25 6 0 6 -5 8
-10 5 -15 -9 -80 17 -72 29 8 13 10 22 18 64 4 17 10 32 15 32 5 0 6 7 3 15
-4 8 -1 15 5 15 6 0 8 7 5 15 -4 8 -1 15 5 15 6 0 8 7 5 15 -4 8 -1 15 6 15 6
0 9 4 5 9 -3 5 -1 12 5 16 6 4 8 11 5 16 -4 5 -1 9 5 9 6 0 9 4 5 10 -3 5 2
26 11 47 9 21 18 44 20 51 9 46 15 47 39 8 13 -22 22 -43 19 -48z m2001 61
c-4 -5 -1 -9 5 -9 6 0 8 -4 5 -10 -3 -5 1 -20 10 -33 8 -13 12 -27 8 -30 -3
-4 -1 -7 6 -7 8 0 11 -7 7 -15 -3 -8 0 -15 6 -15 6 0 9 -2 6 -5 -3 -3 10 -50
29 -103 19 -53 35 -104 35 -112 1 -8 5 -18 11 -21 16 -11 -3 -30 -24 -24 -10
4 -19 2 -19 -4 0 -5 -8 -10 -17 -10 -43 -1 -59 -4 -70 -13 -7 -5 -21 -7 -33
-3 -12 4 -20 2 -20 -5 0 -7 -8 -9 -19 -5 -11 3 -22 2 -25 -3 -3 -6 -32 -13
-63 -17 -127 -17 -140 -14 -98 26 13 13 25 31 25 40 0 8 9 25 20 37 11 12 20
26 20 32 0 5 5 10 10 10 5 0 9 3 9 8 -3 19 2 33 11 27 6 -3 10 -3 11 2 2 25 9
45 18 56 5 7 23 38 40 70 17 32 37 65 46 73 8 9 13 20 10 25 -4 5 -1 9 5 9 6
0 8 5 5 10 -3 6 -1 10 4 10 6 0 10 3 10 8 -3 16 2 23 11 17 6 -4 8 -11 5 -16z
m-2180 -606 c11 -3 28 -5 38 -5 9 1 17 -3 17 -8 0 -4 9 -6 20 -3 11 3 20 1 20
-4 0 -6 12 -10 28 -11 15 0 41 -3 57 -7 17 -3 40 -7 53 -8 12 0 22 -4 22 -7 0
-3 15 -6 33 -7 32 -1 92 -9 92 -13 0 -1 20 -4 45 -6 25 -3 63 -7 85 -10 22 -2
48 -5 58 -6 9 -1 17 -6 17 -10 0 -4 20 -28 45 -55 25 -26 45 -53 45 -60 0 -6
9 -18 20 -26 11 -8 17 -17 14 -20 -4 -4 1 -9 10 -13 9 -3 16 -13 16 -22 0 -8
3 -12 6 -9 4 4 19 -10 35 -31 16 -20 35 -44 44 -53 8 -9 15 -21 15 -27 0 -7 3
-11 8 -9 4 1 9 -3 11 -8 3 -6 27 -30 53 -54 26 -24 46 -47 43 -51 -2 -4 9 -17
26 -29 29 -22 30 -24 13 -42 -9 -10 -23 -19 -31 -19 -7 0 -12 -3 -10 -8 1 -4
-17 -25 -40 -46 -24 -21 -43 -36 -43 -34 0 3 -21 -14 -47 -38 -25 -24 -50 -41
-54 -39 -4 3 -10 -2 -13 -11 -4 -9 -9 -14 -13 -10 -3 3 -13 -3 -20 -14 -8 -11
-18 -18 -23 -15 -4 3 -11 -2 -14 -11 -3 -8 -10 -13 -15 -10 -5 3 -12 -1 -15
-10 -3 -8 -10 -12 -16 -9 -5 3 -10 1 -10 -5 0 -9 -49 -34 -59 -30 -2 1 -7 -4
-12 -11 -4 -7 -15 -14 -25 -15 -9 -2 -20 -7 -23 -12 -7 -10 -43 -26 -53 -24
-5 1 -8 -3 -8 -9 0 -5 -4 -7 -10 -4 -5 3 -10 2 -10 -4 0 -6 -7 -8 -15 -5 -8 4
-15 1 -15 -6 0 -6 -4 -8 -10 -5 -5 3 -10 2 -10 -4 0 -6 -7 -8 -15 -5 -8 4 -15
1 -15 -6 0 -6 -4 -9 -9 -5 -5 3 -13 0 -16 -6 -4 -5 -13 -8 -20 -5 -7 2 -16 2
-19 -1 -3 -4 -16 -8 -29 -9 -12 -2 -40 -6 -61 -10 -46 -8 -146 14 -153 33 -3
7 -9 11 -13 8 -4 -2 -15 4 -25 15 -10 11 -15 20 -12 20 3 0 -5 12 -19 27 -14
15 -22 33 -20 40 3 7 1 13 -5 13 -6 0 -7 4 -4 10 3 5 1 10 -5 10 -7 0 -10 7
-6 15 3 8 1 15 -5 15 -6 0 -9 7 -5 15 3 8 1 15 -4 15 -5 0 -9 10 -9 23 1 12
-2 33 -6 47 -17 62 -23 284 -11 420 3 36 6 76 6 89 0 13 4 29 9 35 6 6 8 24 7
39 -2 15 0 27 3 27 3 0 7 10 7 23 1 22 9 64 18 102 2 11 5 26 5 34 1 8 7 11
19 6 9 -4 26 -9 37 -12z m2389 -103 c2 -14 7 -41 11 -60 4 -19 8 -48 10 -65 2
-16 4 -30 5 -30 6 0 11 -111 11 -265 1 -223 0 -238 -11 -245 -5 -3 -7 -12 -4
-19 3 -8 1 -17 -5 -20 -6 -4 -8 -13 -4 -21 3 -8 0 -15 -6 -15 -7 0 -11 -6 -9
-12 3 -20 -22 -88 -33 -88 -6 0 -8 -4 -5 -8 6 -10 -52 -77 -66 -77 -5 0 -13
-6 -17 -14 -5 -7 -14 -10 -20 -7 -6 4 -11 3 -11 -1 0 -5 -38 -9 -85 -9 -47 0
-85 4 -85 9 0 5 -7 6 -16 3 -9 -4 -23 -1 -30 5 -7 6 -18 8 -23 5 -5 -4 -12 -2
-16 4 -4 6 -10 8 -15 5 -5 -3 -11 -1 -15 5 -4 6 -10 8 -15 5 -4 -3 -13 2 -20
10 -7 8 -16 12 -21 9 -5 -3 -9 -1 -9 5 0 6 -7 8 -15 5 -8 -4 -15 -1 -15 7 0 7
-3 10 -6 6 -9 -8 -64 21 -64 34 0 6 -4 7 -10 4 -5 -3 -10 -1 -10 5 0 6 -4 8
-10 5 -5 -3 -10 -1 -10 4 0 6 -3 10 -7 9 -15 -3 -62 25 -57 33 4 8 -12 13 -18
7 -6 -6 -98 66 -98 75 0 6 -3 7 -6 4 -4 -4 -15 3 -25 15 -11 11 -19 17 -19 12
0 -5 -11 3 -24 18 -12 15 -25 25 -28 22 -3 -3 -16 8 -28 23 -12 15 -27 28 -33
28 -7 1 -11 6 -10 13 2 7 -3 12 -10 12 -13 0 -57 52 -57 67 0 4 18 23 40 44
21 20 37 39 34 41 -2 3 15 23 38 44 24 21 43 41 43 44 0 3 3 4 8 3 4 -2 7 3 7
11 0 8 10 22 22 30 12 9 18 16 13 16 -6 0 2 11 17 24 15 12 26 25 23 28 -2 2
15 25 39 51 23 26 40 47 37 47 -3 1 5 10 18 20 13 11 20 20 17 20 -4 0 5 16
20 35 14 19 30 32 36 29 5 -3 17 -2 26 2 19 8 45 12 107 17 23 2 46 6 52 10 6
4 22 6 34 6 13 -1 40 2 59 6 19 4 47 7 63 6 15 -1 27 2 27 6 0 5 10 9 23 10
60 6 73 9 84 16 6 4 18 4 27 1 9 -3 16 -2 16 3 0 5 10 9 23 10 29 2 80 13 87
20 3 2 8 -17 12 -44 4 -26 9 -59 12 -73z m-1234 -24 c107 -1 207 2 222 7 33
10 76 -7 46 -18 -10 -4 -16 -11 -13 -15 3 -5 -6 -17 -20 -28 -13 -11 -22 -22
-19 -24 3 -3 -9 -17 -25 -31 -16 -13 -28 -27 -25 -30 3 -2 -8 -16 -24 -29 -16
-14 -35 -34 -41 -47 -7 -12 -16 -19 -22 -16 -5 4 -9 0 -9 -7 0 -8 -16 -29 -35
-48 l-35 -34 -25 24 c-14 13 -25 29 -25 36 0 6 -7 14 -15 18 -8 3 -23 19 -34
36 -10 17 -21 31 -25 31 -3 -1 -6 1 -6 4 0 3 -16 19 -35 37 -20 17 -33 33 -31
36 3 2 -6 13 -19 24 -14 11 -23 24 -20 28 3 5 -6 17 -20 26 -37 24 -31 35 18
28 23 -4 130 -7 237 -8z"/>
<path d="M2270 2555 l0 -586 33 6 c17 4 59 12 92 18 l60 12 5 195 c5 177 7
199 27 235 12 22 22 34 23 26 0 -12 148 -410 156 -419 4 -6 188 20 196 27 6 5
-116 317 -205 520 l-37 85 82 155 c45 86 100 191 124 234 l43 77 -100 0 -99 0
-106 -212 c-58 -117 -106 -214 -107 -215 -1 -1 -1 95 0 213 l2 214 -94 0 -95
0 0 -585z"/>
</g>
</svg>
